<svg id="Music-Remove--Streamline-Carbon" xmlns="http://www.w3.org/2000/svg" viewBox="0 0 16 16" height="16" width="16">
  <desc>
    Music Remove Streamline Icon: https://streamlinehq.com
  </desc>
  <defs></defs>
  <path d="M13.205 3.5 15 1.705 14.295 1 12.5 2.795 10.705 1 10 1.705 11.795 3.5 10 5.295 10.705 6 12.5 4.205 14.295 6 15 5.295 13.205 3.5z" fill="#000000" stroke-width="0.5"></path>
  <path d="M12 7.5v3.7781A1.9776 1.9776 0 0 0 11 11a2 2 0 1 0 2 2V7.5Zm-1 6.5a1 1 0 1 1 1 -1 1.00135 1.00135 0 0 1 -1 1Z" fill="#000000" stroke-width="0.5"></path>
  <path d="M8.5 3h-3.5a1.001 1.001 0 0 0 -1 1v7.2781A1.97785 1.97785 0 0 0 3 11a2 2 0 1 0 2 2V4h3.5ZM3 14a1 1 0 1 1 1 -1 1.00115 1.00115 0 0 1 -1 1Z" fill="#000000" stroke-width="0.5"></path>
  <path id="_Transparent_Rectangle_" d="M0 0h16v16H0Z" fill="none" stroke-width="0.5"></path>
</svg>